# AST/ASF file generated using VICON BodyLanguage
# -----------------------------------------------
:version 1.10
:name VICON
:units
  mass 1.0
  length 0.45
  angle deg
:documentation
   .ast/.asf automatically generated from VICON data using
   VICON BodyBuilder and BodyLanguage model FoxedUp or BRILLIANT.MOD
:root
   order TX TY TZ RX RY RZ
   axis XYZ
   position 0 0 0  
   orientation 0 0 0 
:bonedata
  begin
     id 1 
     name lhipjoint
     direction 0.523584 -0.783993 0.333487 
     length 2.44404 
     axis 0 0 0  XYZ
  end
  begin
     id 2 
     name lfemur
     direction 0.34202 -0.939693 0  
     length 7.29523  
     axis 0 0 20  XYZ
    dof rx ry rz
    limits (-160.0 20.0)
           (-70.0 70.0)
           (-60.0 70.0)
  end
  begin
     id 3 
     name ltibia
     direction 0.34215 -0.939645 0   
     length 7.81194   
     axis 0 0 20   XYZ
    dof rx
    limits (-10.0 170.0)
  end
  begin
     id 4 
     name lfoot
     direction 0.0941847 -0.25877 0.961336   
     length 2.41437   
     axis -90 7.62852e-016 20   XYZ
    dof rx rz
    limits (-45.0 90.0)
           (-70.0 20.0)
  end
  begin
     id 5 
     name ltoes
     direction 1.53526e-011 -4.21768e-011 1   
     length 1.2048   
     axis -90 7.62852e-016 20   XYZ
    dof rx
    limits (-90.0 20.0)
  end
  begin
     id 6 
     name rhipjoint
     direction -0.46599 -0.814191 0.346332   
     length 2.35339  
     axis 0 0 0  XYZ 
  end
  begin
     id 7 
     name rfemur
     direction -0.34202 -0.939693 0   
     length 7.34966   
     axis 0 0 -20   XYZ
    dof rx ry rz
    limits (-160.0 20.0)
           (-70.0 70.0)
           (-70.0 60.0)
  end
  begin
     id 8 
     name rtibia
     direction -0.34202 -0.939693 0   
     length 7.89934   
     axis 0 0 -20   XYZ
    dof rx
    limits (-10.0 170.0)
 end
 begin
     id 9 
     name rfoot
     direction -0.0975468 -0.268008 0.958466   
     length 2.27725  
     axis -90 -7.62852e-016 -20   XYZ
    dof rx rz
    limits (-45.0 90.0)
           (-20.0 70.0)
  end
  begin
     id 10 
     name rtoes
     direction -1.53563e-011 -4.22022e-011 1   
     length 1.13683   
     axis -90 -7.62852e-016 -20   XYZ
    dof rx
    limits (-90.0 20.0)
  end
  begin
     id 11 
     name lowerback
     direction -0.00456414 0.999242 -0.0386661   
     length 2.16968   
     axis 0 0 0   XYZ
    dof rx ry rz
    limits (-20.0 45.0)
           (-30.0 30.0)
           (-30.0 30.0)
  end
  begin
     id 12 
     name upperback
     direction 0.0297078 0.998988 0.0337799   
     length 2.15674   
     axis 0 0 0   XYZ
    dof rx ry rz
    limits (-20.0 45.0)
           (-30.0 30.0)
           (-30.0 30.0)
  end
  begin
     id 13 
     name thorax
     direction 0.0309305 0.998202 0.0513506   
     length 2.16319   
     axis 0 0 0   XYZ
    dof rx ry rz
    limits (-20.0 45.0)
           (-30.0 30.0)
           (-30.0 30.0)
  end
  begin
     id 14 
     name lowerneck
     direction -0.103039 0.983474 0.148872   
     length 1.64318   
     axis 0 0 0   XYZ
    dof rx ry rz
    limits (-20.0 45.0)
           (-30.0 30.0)
           (-30.0 30.0)
  end
  begin
     id 15 
     name upperneck
     direction 0.128124 0.971079 -0.201469   
     length 1.68242   
     axis 0 0 0   XYZ
    dof rx ry rz
    limits (-20.0 45.0)
           (-30.0 30.0)
           (-30.0 30.0)
  end
  begin
     id 16
     name head
     direction 0.0496365 0.994919 -0.0875941  
     length 1.70108  
     axis 0 0 0   XYZ
    dof rx ry rz
    limits (-20.0 45.0)
           (-30.0 30.0)
           (-30.0 30.0)
  end
  begin
     id 17 
     name lclavicle
     direction 0.887148 0.430222 -0.166967  
     length 3.25763  
     axis 0 0 0   XYZ
    dof ry rz
    limits (-20.0 10.0)
           (0.0 20.0)
  end
  begin
     id 18 
     name lhumerus
     direction 1 -4.48962e-011 1.92156e-027   
     length 5.10755   
     axis 180 -30 -90   XYZ
    dof rx ry rz
    limits (-60.0 90.0)
           (-90.0 90.0)
           (-90.0 90.0)
  end
  begin
     id 19
     name lradius
     direction 1 -4.48958e-011 7.10963e-027   
     length 3.36253   
     axis 180 -30 -90   XYZ
    dof rx
    limits (-10.0 170.0)
  end
  begin
     id 20
     name lwrist
     direction 1 -4.48946e-011 1.82396e-026   
     length 1.68127   
     axis -1.15222e-014 90 90   XYZ
    dof ry
    limits (-180.0 0.0)
 end
  begin
     id 21 
     name lhand
     direction 1 -4.48919e-011 3.64759e-026   
     length 0.619088   
     axis -2.32787e-014 90 90   XYZ
    dof rx rz
    limits (-90.0 90.0)
           (-45.0 45.0)
  end
  begin
     id 22 
     name lfingers
     direction 1 -4.49012e-011 7.29744e-026   
     length 0.499125   
     axis -4.6558e-014 90 90   XYZ
    dof rx
    limits (0.0 90.0)
  end
  begin
     id 23
     name lthumb
     direction 0.707107 -6.35028e-011 0.707107   
     length 0.716646   
     axis -90 45 3.78391e-014   XYZ
    dof rx rz
    limits (-45.0 45.0)
           (-45.0 45.0)
  end
  begin
     id 24 
     name rclavicle
     direction -0.82886 0.533198 -0.169384   
     length 3.20647  
     axis 0 0 0   XYZ 
    dof ry rz
    limits (-10.0 20.0)
           (-20.0 0.0)
  end
  begin
     id 25 
     name rhumerus
     direction -1 -4.48973e-011 3.06863e-027  
     length 5.27387   
     axis 180 30 90   XYZ
    dof rx ry rz
    limits (-90.0 60.0)
           (-90.0 90.0)
           (-90.0 90.0)
  end
  begin
     id 26 
     name rradius
     direction -1 -4.48988e-011 9.4797e-027   
     length 3.40144   
     axis 180 30 90   XYZ
    dof rx
    limits (-10.0 170.0)
  end
  begin
     id 27 
     name rwrist
     direction -1 -4.48897e-011 1.82366e-026   
     length 1.70072   
     axis -1.15222e-014 -90 -90   XYZ
    dof ry
    limits (-180.0 0.0)
  end
  begin
     id 28
     name rhand
     direction -1 -4.48965e-011 3.64815e-026   
     length 0.742821   
     axis -2.32787e-014 -90 -90   XYZ
    dof rx rz
    limits (-90.0 90.0)
           (-45.0 45.0)
  end
  begin
     id 29
     name rfingers
     direction -1 -4.49016e-011 7.29754e-026   
     length 0.598881   
     axis -4.6558e-014 -90 -90   XYZ
    dof rx
    limits (0.0 90.0)
  end
  begin
     id 30
     name rthumb
     direction -0.707107 -6.3488e-011 0.707107   
     length 0.859877   
     axis -90 -45 -3.78391e-014   XYZ
    dof rx rz
    limits (-45.0 45.0)
           (-45.0 45.0)
  end
:hierarchy
  begin
    root lhipjoint rhipjoint lowerback
    lhipjoint lfemur
    lfemur ltibia
    ltibia lfoot
    lfoot ltoes
    rhipjoint rfemur
    rfemur rtibia
    rtibia rfoot
    rfoot rtoes
    lowerback upperback
    upperback thorax
    thorax lowerneck lclavicle rclavicle
    lowerneck upperneck
    upperneck head
    lclavicle lhumerus
    lhumerus lradius
    lradius lwrist
    lwrist lhand lthumb
    lhand lfingers
    rclavicle rhumerus
    rhumerus rradius
    rradius rwrist
    rwrist rhand rthumb
    rhand rfingers
  end

#!OML:ASF F:\Work\Patient Classification 1\justin\Session 1\justin.ASF
:FULLY-SPECIFIED
:DEGREES
87
root -0.229354 17.9318 -24.2741 -2.39051 2.36247 -0.443303
lowerback 9.62239 -0.637995 -2.44147
upperback -1.3491 -0.939231 3.0709
thorax -6.74294 -0.303168 4.76773
lowerneck -14.1814 -6.9508 -16.9235
upperneck 27.6188 -8.40046 9.79314
head 12.7266 -4.36233 5.33392
rclavicle -1.3977e-014 2.3059e-014
rhumerus -34.6767 -6.08741 -80.5999
rradius 26.0336
rwrist 5.25534
rhand -19.9438 17.9734
rfingers 7.12502
rthumb 6.39409 -11.91
lclavicle -1.3977e-014 2.3059e-014
lhumerus -37.4514 11.1353 85.4398
lradius 28.9423
lwrist -4.31398
lhand -7.92432 29.6442
lfingers 7.12502
lthumb 17.9817 58.833
rfemur -6.13231 1.60919 22.9193
rtibia 33.0257
rfoot -20.5224 -5.06975
rtoes -2.4017
lfemur -4.99634 -1.14964 -18.7472
ltibia 29.3395
lfoot -17.8521 0.360832
ltoes -15.8607
88
root -0.236034 17.9261 -24.2749 -2.51324 2.36644 -0.375926
lowerback 9.8197 -0.573301 -2.32564
upperback -0.830313 -0.852744 2.97341
thorax -6.31493 -0.284994 4.5773
lowerneck -16.4279 -7.17053 -16.6096
upperneck 28.3788 -8.40381 9.63057
head 13.4921 -4.3029 5.20495
rclavicle -1.31446e-014 1.98785e-014
rhumerus -33.6672 -6.26114 -80.8667
rradius 26.1332
rwrist 5.16092
rhand -19.9768 17.788
rfingers 7.12502
rthumb 6.36222 -12.0965
lclavicle -1.31446e-014 1.98785e-014
lhumerus -36.1697 11.2254 85.5344
lradius 28.9191
lwrist -5.09586
lhand -13.9818 14.8781
lfingers 7.12502
lthumb 12.1466 44.5055
rfemur -6.05211 1.53131 22.8515
rtibia 33.0993
rfoot -20.5136 -4.98431
rtoes -2.38911
lfemur -4.85227 -1.09792 -18.7969
ltibia 29.3211
lfoot -17.9025 0.326751
ltoes -16.0811
89
root -0.245781 17.9231 -24.2804 -2.53458 2.48013 -0.329121
lowerback 9.91226 -0.61009 -2.49006
upperback -1.27138 -0.916076 3.00772
thorax -6.8281 -0.290299 4.731
lowerneck -14.5189 -6.68494 -16.5369
upperneck 27.9995 -8.00505 9.55291
head 12.8523 -4.17296 5.24909
rclavicle -3.52843e-015 -2.38542e-015
rhumerus -34.7742 -5.76004 -80.8711
rradius 26.4221
rwrist 4.91143
rhand -19.9814 17.5304
rfingers 7.12502
rthumb 6.35777 -12.3542
lclavicle -3.52843e-015 -2.38542e-015
lhumerus -37.3133 11.2559 85.3438
lradius 29.3263
lwrist -5.37506
lhand -6.71859 28.0109
lfingers 7.12502
lthumb 19.1415 57.0889
rfemur -6.09339 1.43972 22.8352
rtibia 33.1875
rfoot -20.575 -5.01658
rtoes -2.41558
lfemur -4.86227 -1.14794 -18.8056
ltibia 29.355
lfoot -17.9335 0.246583
ltoes -16.0063
90
root -0.268179 17.917 -24.266 -2.73456 3.03088 -0.245403
lowerback 9.96739 -0.680542 -2.68698
upperback -1.04321 -1.04 2.96498
thorax -6.60173 -0.353978 4.81234
lowerneck -14.7585 -6.78165 -16.1548
upperneck 27.8551 -8.11049 9.26313
head 12.8257 -4.20285 5.039
rclavicle -3.42531e-014 3.57812e-014
rhumerus -34.493 -5.87501 -80.9569
rradius 26.4235
rwrist 4.77714
rhand -20.0324 17.5462
rfingers 7.12502
rthumb 6.30854 -12.3398
lclavicle -3.42531e-014 3.57812e-014
lhumerus -37.0815 10.8267 85.5266
lradius 29.6379
lwrist -5.10431
lhand -6.79709 27.2305
lfingers 7.12502
lthumb 19.066 56.316
rfemur -5.80521 1.3277 22.9052
rtibia 33.3182
rfoot -20.9382 -5.42528
rtoes -2.18772
lfemur -4.65987 -1.30037 -18.7622
ltibia 29.3974
lfoot -18.0112 -0.178856
ltoes -15.9327
91
root -0.27032 17.9111 -24.2645 -2.68486 2.56531 -0.0270068
lowerback 9.97156 -0.479551 -2.77919
upperback -0.963965 -0.792571 2.82758
thorax -6.54567 -0.234442 4.67904
lowerneck -15.1452 -6.78545 -16.0228
upperneck 27.9712 -8.09688 9.27481
head 12.9451 -4.17326 5.02169
rclavicle -5.16219e-015 -6.36111e-015
rhumerus -34.3084 -5.99873 -81.0757
rradius 26.3863
rwrist 4.80131
rhand -20.1626 17.7757
rfingers 7.12502
rthumb 6.18282 -12.1141
lclavicle -5.16219e-015 -6.36111e-015
lhumerus -36.8165 10.4012 85.6476
lradius 29.5578
lwrist -4.3754
lhand -7.50228 26.6813
lfingers 7.12502
lthumb 18.3877 55.8322
rfemur -5.96868 1.42778 22.6033
rtibia 33.4596
rfoot -20.9556 -5.01562
rtoes -2.0443
lfemur -4.69005 -1.09532 -19.0378
ltibia 29.4688
lfoot -18.0982 0.174462
ltoes -16.2235
92
root -0.273346 17.9048 -24.272 -2.64997 2.12614 0.00586756
lowerback 10.2359 -0.321998 -2.68735
upperback -1.01616 -0.579252 2.75741
thorax -6.77452 -0.127966 4.52657
lowerneck -15.8375 -6.68283 -16.0444
upperneck 28.5534 -7.89764 9.40136
head 13.3082 -4.06677 5.12424
rclavicle 8.99811e-015 7.95139e-015
rhumerus -34.3264 -6.12199 -81.1194
rradius 26.4305
rwrist 4.93809
rhand -20.1244 18.1482
rfingers 7.12502
rthumb 6.21973 -11.7405
lclavicle 8.99811e-015 7.95139e-015
lhumerus -36.8286 10.1896 85.6607
lradius 29.5893
lwrist -3.45359
lhand -12.3607 61.3722
lfingers 7.12502
lthumb 13.7094 -90.9006
rfemur -6.18105 1.51105 22.5136
rtibia 33.6312
rfoot -20.9234 -4.63311
rtoes -1.86075
lfemur -4.77862 -0.905896 -19.1001
ltibia 29.5866
lfoot -18.1697 0.498897
ltoes -16.5368
93
root -0.298062 17.901 -24.2641 -2.59998 3.02291 -0.170732
lowerback 10.3644 -0.574588 -2.59511
upperback -1.15424 -0.903169 2.79361
thorax -6.96378 -0.282793 4.57025
lowerneck -16.2077 -6.5995 -15.8205
upperneck 29.0157 -7.72843 9.15446
head 13.5315 -3.99878 5.02757
rclavicle 2.29224e-015 -2.06736e-014
rhumerus -34.576 -6.32994 -81.0452
rradius 26.5185
rwrist 5.11096
rhand -19.8736 18.6406
rfingers 7.12502
rthumb 6.46189 -11.2408
lclavicle 2.29224e-015 -2.06736e-014
lhumerus -36.9523 10.1023 85.6008
lradius 29.5282
lwrist -3.16488
lhand -8.90282 24.9924
lfingers 7.12502
lthumb 17.04 54.2651
rfemur -6.18328 1.2084 22.8886
rtibia 33.7642
rfoot -21.1705 -5.23168
rtoes -2.06364
lfemur -4.99458 -1.1867 -18.726
ltibia 29.7222
lfoot -18.1613 -0.136998
ltoes -16.5699
94
root -0.305785 17.8952 -24.2874 -2.63429 2.58821 -0.205527
lowerback 11.0195 -0.353932 -2.46812
upperback -1.42215 -0.60417 2.71362
thorax -7.65637 -0.122577 4.38665
lowerneck -15.9643 -6.49803 -15.5353
upperneck 29.1044 -7.64606 8.94715
head 13.4778 -3.96477 4.91512
rclavicle 2.98177e-015 -2.06736e-014
rhumerus -35.0626 -6.57968 -81.0067
rradius 26.5483
rwrist 5.27901
rhand -19.7793 18.9959
rfingers 7.12502
rthumb 6.55289 -10.8827
lclavicle 2.98177e-015 -2.06736e-014
lhumerus -37.3573 9.93302 85.4534
lradius 29.6824
lwrist -3.33888
lhand -9.21614 23.994
lfingers 7.12502
lthumb 16.7384 53.2924
rfemur -6.38933 1.29658 22.9012
rtibia 33.925
rfoot -20.9836 -4.95147
rtoes -2.66938
lfemur -5.08597 -1.01177 -18.6854
ltibia 29.8653
lfoot -18.1104 0.0925135
ltoes -16.4022
95
root -0.335995 17.8921 -24.2768 -2.7054 3.54408 -0.173656
lowerback 10.4925 -0.585008 -2.71215
upperback -0.992388 -0.938305 2.74561
thorax -6.85966 -0.301624 4.59098
lowerneck -16.0282 -6.49617 -15.6232
upperneck 28.6506 -7.65624 9.20775
head 13.317 -3.93412 5.01799
rclavicle -1.02444e-014 -5.56597e-015
rhumerus -34.4901 -6.67216 -81.1012
rradius 26.5412
rwrist 5.09604
rhand -19.8283 19.0357
rfingers 7.12502
rthumb 6.5056 -10.8443
lclavicle -1.02444e-014 -5.56597e-015
lhumerus -36.6705 9.87509 85.6092
lradius 29.7648
lwrist -3.44544
lhand -9.14618 24.3108
lfingers 7.12502
lthumb 16.8057 53.6035
rfemur -6.24183 0.790045 23.0251
rtibia 34.0289
rfoot -21.2028 -5.41691
rtoes -2.6131
lfemur -5.13476 -1.26396 -18.5173
ltibia 29.9863
lfoot -18.1745 -0.730892
ltoes -15.7489
96
root -0.335764 17.8893 -24.2837 -2.62417 3.21214 0.114919
lowerback 10.2923 -0.455193 -2.88724
upperback -0.842029 -0.790523 2.65948
thorax -6.59923 -0.233387 4.56669
lowerneck -16.035 -6.39747 -15.7941
upperneck 28.4947 -7.51987 9.44141
head 13.2499 -3.8602 5.16199
rclavicle -8.10358e-015 6.36111e-015
rhumerus -34.2619 -6.31576 -81.3
rradius 26.6021
rwrist 4.72541
rhand -19.8669 18.8607
rfingers 7.12502
rthumb 6.46827 -11.0206
lclavicle -8.10358e-015 6.36111e-015
lhumerus -36.3752 9.89108 85.7083
lradius 29.8917
lwrist -3.35579
lhand -12.6109 60.6044
lfingers 7.12502
lthumb 13.4683 -90.1489
rfemur -6.47648 0.637675 22.5889
rtibia 34.1779
rfoot -21.1174 -4.95938
rtoes -2.73677
lfemur -5.25116 -1.15977 -18.8886
ltibia 30.0823
lfoot -18.2106 -0.454065
ltoes -15.4133
97
root -0.34008 17.8828 -24.2767 -2.68246 2.83736 0.195493
lowerback 10.2093 -0.348839 -2.99561
upperback -0.963608 -0.657324 2.7002
thorax -6.69364 -0.15881 4.65194
lowerneck -15.2513 -6.14265 -15.9845
upperneck 28.4032 -7.23082 9.48708
head 13.0096 -3.76598 5.27022
rclavicle 9.75287e-016 6.36111e-015
rhumerus -34.6698 -5.88963 -81.3116
rradius 26.5876
rwrist 4.62538
rhand -19.9227 18.8982
rfingers 7.12502
rthumb 6.41446 -10.9847
lclavicle 9.75287e-016 6.36111e-015
lhumerus -36.8272 9.87436 85.8002
lradius 30.1396
lwrist -3.11695
lhand -8.70383 26.3087
lfingers 7.12502
lthumb 17.2315 55.5648
rfemur -6.47519 0.69212 22.4632
rtibia 34.2738
rfoot -21.0842 -4.69264
rtoes -3.22063
lfemur -5.13653 -0.964537 -18.9818
ltibia 30.1255
lfoot -18.314 -0.247032
ltoes -15.558
98
root -0.348036 17.8755 -24.2584 -2.8217 2.72825 0.221493
lowerback 10.2208 -0.302637 -2.96565
upperback -0.798622 -0.59354 2.6911
thorax -6.53135 -0.135648 4.61201
lowerneck -15.7039 -6.204 -16.0425
upperneck 28.6401 -7.21424 9.41029
head 13.2026 -3.7682 5.25577
rclavicle -7.32397e-015 0
rhumerus -34.4651 -5.93492 -81.3146
rradius 26.476
rwrist 4.79715
rhand -19.8832 18.9603
rfingers 7.12502
rthumb 6.45261 -10.9214
lclavicle -7.32397e-015 0
lhumerus -36.6523 9.7641 85.9
lradius 30.2444
lwrist -2.83614
lhand -12.6822 59.1862
lfingers 7.12502
lthumb 13.3995 88.7353
rfemur -6.30291 0.644807 22.4395
rtibia 34.3743
rfoot -21.1172 -4.55029
rtoes -3.81065
lfemur -4.91922 -0.887086 -18.9703
ltibia 30.191
lfoot -18.4373 -0.310235
ltoes -15.2676
